<svg width="24" height="24" viewBox="0 0 24 24" fill="none" xmlns="http://www.w3.org/2000/svg">
<path d="M3.714 3.04801C3.62406 3.0041 3.52298 2.98831 3.42394 3.0027C3.3249 3.01709 3.23248 3.06099 3.15876 3.12867C3.08503 3.19635 3.03341 3.28468 3.01062 3.38213C2.98783 3.47959 2.99493 3.58165 3.031 3.67501L5.874 11.302C6.04167 11.7522 6.04167 12.2478 5.874 12.698L3.032 20.325C2.99611 20.4183 2.9891 20.5201 3.01188 20.6174C3.03466 20.7147 3.08617 20.8029 3.15972 20.8705C3.23327 20.9381 3.32546 20.982 3.42431 20.9966C3.52316 21.0111 3.6241 20.9956 3.714 20.952L21.714 12.452C21.7996 12.4115 21.872 12.3475 21.9227 12.2675C21.9733 12.1875 22.0002 12.0947 22.0002 12C22.0002 11.9053 21.9733 11.8125 21.9227 11.7325C21.872 11.6525 21.7996 11.5885 21.714 11.548L3.714 3.04801Z" stroke="#D9D9D9" stroke-width="2" stroke-linecap="round" stroke-linejoin="round"/>
<path d="M6 12H22" stroke="#D9D9D9" stroke-width="2" stroke-linecap="round" stroke-linejoin="round"/>
</svg>
