<svg width="41" height="41" viewBox="0 0 41 41" fill="none" xmlns="http://www.w3.org/2000/svg">
<circle cx="20.921" cy="20.0791" r="20.0791" fill="#D9D9D9"/>
<path d="M31.6298 32.1265V29.4493C31.6298 28.0292 31.0657 26.6673 30.0615 25.6631C29.0574 24.659 27.6955 24.0949 26.2754 24.0949H15.5666C14.1465 24.0949 12.7846 24.659 11.7804 25.6631C10.7763 26.6673 10.2122 28.0292 10.2122 29.4493V32.1265M26.2754 13.386C26.2754 16.3432 23.8781 18.7404 20.921 18.7404C17.9638 18.7404 15.5666 16.3432 15.5666 13.386C15.5666 10.4289 17.9638 8.03162 20.921 8.03162C23.8781 8.03162 26.2754 10.4289 26.2754 13.386Z" stroke="#1E1E1E" stroke-width="4" stroke-linecap="round" stroke-linejoin="round"/>
</svg>
